<svg xmlns="http://www.w3.org/2000/svg" viewBox="0 0 668 671" width="668" height="671">
  <style>
    path { fill: #0083CA; }
    @media (prefers-color-scheme: dark) {
      path { fill: #ffffff; }
    }
  </style>
  <path d="M571.73 260.24H526.74C521.88 260.24 518.43 264.96 519.91 269.59C522.13 276.58 524.02 283.72 525.55 290.99C527.39 299.73 528.72 308.65 529.51 317.74C530.06 324.13 530.36 330.6 530.36 337.13C530.36 341.92 530.19 346.67 529.89 351.38C529.27 361.15 528.03 370.74 526.19 380.13C524.45 389.03 522.17 397.75 519.4 406.24C518.15 410.08 521.04 414.02 525.08 414.02H554.76C565.04 414.02 573.86 406.8 576.03 396.75C577.21 391.27 578.24 385.73 579.09 380.13C580.3 372.22 581.16 364.19 581.7 356.08C581.72 355.74 582 355.48 582.34 355.48H601.85C616.05 355.48 627.06 343.87 626.25 329.7C626.16 328.14 626.04 326.59 625.89 325.04C625.71 323.23 624.18 321.84 622.36 321.84H582.54C582.2 321.84 581.91 321.57 581.89 321.23C581.83 320.07 581.76 318.91 581.68 317.75C581.08 308.98 581.12 307.14 579.79 299C579.73 298.61 580.03 298.24 580.43 298.24L598.64 298.21H635.84C652 298.21 664.23 283.55 661.29 267.66C661.08 266.52 660.86 265.39 660.64 264.29C660.17 261.95 658.12 260.26 655.73 260.26H592.24H571.72L571.73 260.24Z"/>
  <path d="M272.04 189.65C267.26 186.28 261.41 185.21 255.12 186.57C242.22 189.35 234.38 203.9 237.63 219.01C240.45 232.08 249.53 240.21 260.57 240.21C262.21 240.21 263.89 240.03 265.6 239.66C271.66 238.36 276.71 234.17 279.82 227.86C282.91 221.6 283.72 214 282.09 206.46C280.48 198.96 277 193.15 272.04 189.65Z"/>
  <path d="M498.21 224.18C505.8 235.16 518.13 241.1 531.48 241.1H559.97C563.58 241.1 565.66 237.08 564.19 233.79C526.54 149.31 444.18 90.4 346.87 85.76C193.17 78.43 73.3996 200.48 83.5796 354.02C92.2696 485.13 201.37 588.79 334.68 588.79C437.04 588.79 525.11 527.67 564.43 439.94C566 436.43 563.39 432.46 559.54 432.46H529.18C517.17 432.46 506.05 438.54 499.31 448.49C490.03 462.19 479.06 474.65 466.75 485.62C462.65 467.68 462.15 461.26 462.13 459.33C462.13 459.23 462.22 459.13 462.31 459.13C462.92 459.12 463.66 458.98 464.51 458.71C468.33 457.53 471.39 454.87 473.13 451.21C474.89 447.51 475.01 443.21 473.47 439.41C462.96 413.55 454.54 362.52 459.44 335.48C464.99 304.86 464.12 280.25 457 266.21C450.86 252.89 448.18 240.66 445.81 229.86C441.73 211.26 439.11 196.28 421.05 193.31C409.49 191.41 398.26 198.17 393.49 215.03C389.2 230.16 394.58 245.75 405.24 249.08C409.81 250.51 414.83 249.24 419.73 245.61C419.62 250.64 416.15 252.89 412.19 254.62C411.62 254.87 411.05 255.12 410.52 255.36C394.89 260.83 388.21 271.08 383.18 280.25C381.4 283.49 379.09 289.38 376.17 296.84C368.45 316.54 356.79 346.31 341.74 359.82C341.69 359.86 341.64 359.87 341.6 359.87C341.57 359.87 341.51 359.85 341.46 359.79C338.47 355.95 322.84 335.4 309.15 308.21C305.8 301.57 303.12 294.3 300.53 287.28C291.26 262.19 282.51 238.5 245.95 248.17C231.54 251.98 222.13 266.04 217.99 289.94C214.58 309.64 215.44 331.97 215.96 345.31C216.13 349.6 216.26 352.99 216.22 355.29C216.02 368.28 211.83 390.78 210.03 399.86C209.21 404.01 210.79 408.17 214.14 410.73C216.61 412.61 219.77 414.76 223.52 417.12C223.58 417.16 223.62 417.22 223.63 417.28C228.02 451.61 224.4 487.32 222.59 501.39C159.6 458.35 122.62 380.04 140.16 294.89C154.1 227.21 221.11 158.67 288.53 143.54C374.73 124.19 454.4 160.86 498.22 224.22L498.21 224.18ZM383.54 373.53C387.14 360.82 399.66 352.98 411.09 356.27C422.9 359.68 429.1 372.3 425.37 385.38C421.78 398.01 408.72 406.23 397.82 403.14C383.94 399.21 380.06 385.79 383.54 373.52V373.53ZM272.5 328.85C283.55 325.46 296.13 333.31 300.11 346.07C303.9 358.25 297.51 372.88 286.97 376.14C275.72 379.62 263.75 371.95 259.73 358.67C255.66 345.25 261.2 332.32 272.5 328.85ZM265.95 386.71C270.16 384.15 274.48 382.78 278.82 382.64C282.23 382.33 288.03 382.72 296.36 386.3C308.27 391.43 316.05 406.46 318.48 419.07C321.37 434.07 331.98 446.28 336.4 450.83C337.92 452.39 340.24 452.78 342.19 451.8C349.14 448.3 366.75 438.11 380.18 419C383.19 414.71 386.49 412.07 390.02 411.12C392.66 410.15 395.72 409.68 399.39 409.68H399.4C419.75 409.68 423.98 424.77 424.85 431.25C424.88 431.5 424.91 431.67 424.93 431.74C425.91 435.69 426.44 440.87 427.01 446.36C428.13 457.29 429.18 469.04 433.6 476.52C437.02 482.31 438 485.94 437.13 487.87C436.08 490.2 432.92 491.47 428.72 493.1C423.04 495.31 421.7 498.69 421.43 503.57C421.2 507.71 420.77 511.97 420.14 516.22C419.66 519.44 419.19 522.64 418.42 525.68C417.55 529.12 416.27 532.39 413.55 532.46C410.37 532.54 408.88 528.75 407.92 526.14L407.87 526C407.49 524.98 407.13 523.89 406.68 522.46C405.88 519.87 405.18 517.18 404.51 514.59C403.77 511.72 403 508.76 402.08 505.88C401.96 505.52 401.86 505.15 401.77 504.79C401.23 502.81 400.62 500.56 397.52 500.26C393.9 499.9 392.96 503.24 392.29 505.67L392.2 506C391.48 508.59 390.83 511.02 390.2 513.4C389.14 517.41 388.13 521.19 386.87 525.35L386.59 526.27C386.36 527.05 386.09 527.96 385.78 528.91C383.86 534.75 381.78 537.58 379.4 537.58C377.38 537.58 375.94 535.67 374.99 531.75C374.58 530.08 374.35 528.38 374.16 527.02L374.03 526.1C373.2 520.54 373.03 514.31 372.86 508.29C372.82 506.94 372.78 505.61 372.74 504.32C372.71 503.5 372.71 502.74 372.71 502.02C372.71 497.89 372.69 494.9 367.28 493.08C362.38 491.43 362.96 487.87 364.53 481.12C366.37 473.2 367.6 466.01 368.79 459.05C369.12 457.14 369.44 455.24 369.78 453.32L370.01 452.02L368.91 452.75C360.25 458.52 351.01 463.12 341.44 466.43C339.44 467.12 337.27 467.03 335.31 466.18C323.74 461.14 313.98 449.32 307.82 440.3L306.86 438.89L306.79 440.59C306.54 446.48 306.08 452.64 305.42 460.68C304.73 469.03 304.79 479.38 304.86 490.34C304.95 505.53 305.04 521.25 303.1 532.73C303.07 532.93 303.03 533.14 302.99 533.34C302.26 537.16 300.79 541.17 299.64 542.48C299.34 542.82 298.73 543.38 297.85 543.29C296.79 543.19 295.64 542.14 294.54 540.26C293.38 538.29 292.28 535.21 291.18 530.85C289.51 524.21 288.05 515.43 286.51 506.13C285.15 497.92 283.74 489.42 282.03 481.36L281.52 478.95L280.93 481.34C279.08 488.82 277.65 496.34 276.39 502.97C274.69 511.92 273.22 519.66 271.16 525.51C269.94 528.96 268.61 531.47 267.1 533.18C266.26 534.13 265.27 534.61 264.26 534.55C263.16 534.5 262.48 533.83 261.68 532.71C260.42 530.98 259.19 527.03 258.76 520.63L258.71 519.88C258.38 514.41 258.59 507.84 258.81 500.89C259.1 491.78 259.44 481.46 258.6 471.42C258.57 471.01 258.27 470.7 257.72 470.12C256.28 468.61 252.92 465.08 251.8 456.04C246.89 416.46 251.13 395.72 265.99 386.68L265.95 386.71Z"/>
  <path d="M662.41 372.3H646C628.34 372.3 613.11 384.48 608.97 401.64C607.25 408.77 605.24 415.83 602.96 422.81C601.78 426.42 600.53 430.01 599.2 433.58C597.79 437.37 596.3 441.15 594.72 444.89C580.55 478.4 560.25 508.5 534.38 534.37C508.52 560.23 478.41 580.54 444.9 594.71C410.24 609.37 373.38 616.81 335.37 616.81C297.36 616.81 260.5 609.38 225.84 594.71C192.33 580.54 162.23 560.24 136.36 534.37C110.5 508.51 90.19 478.4 76.02 444.89C61.36 410.23 53.92 373.37 53.92 335.36C53.92 297.35 61.35 260.49 76.02 225.83C90.19 192.32 110.49 162.22 136.36 136.35C162.22 110.49 192.33 90.18 225.84 76.01C260.5 61.35 297.36 53.91 335.37 53.91C373.38 53.91 410.24 61.34 444.9 76.01C478.41 90.18 508.51 110.48 534.38 136.35C548.07 150.04 559.62 165.31 570.68 180.85C581.57 196.15 588.47 209.54 592.86 219.72C598.03 231.7 609.87 239.42 622.92 239.42H649.86C653.31 239.42 655.76 236.06 654.71 232.78C611.37 97.75 484.79 0 335.36 0C150.15 0 0 150.14 0 335.36C0 520.58 150.14 670.72 335.36 670.72C486.39 670.72 614.1 570.87 656.09 433.58C657.18 430.02 658.2 426.42 659.18 422.81C663.06 408.42 666 393.66 667.94 378.57C668.37 375.24 665.77 372.29 662.41 372.29V372.3Z"/>
</svg>
