<?xml version="1.0" encoding="UTF-8"?>
<svg id="Layer_1" data-name="Layer 1" xmlns="http://www.w3.org/2000/svg" viewBox="0 0 1959.33 875.25">
  <defs>
    <style>
      .cls-1 {
        fill: #fff;
      }
    </style>
  </defs>
  <g>
    <path class="cls-1" d="M878.11,351.24c-4.41.15-5.63-.46-6.39-3.04-2.28-8.52-9.43-13.54-19.17-13.54-14.91,0-24.04,12.02-24.04,31.5s8.98,31.5,23.74,31.5c10.65,0,17.8-6.24,19.63-17.04.76-2.89,1.98-3.5,6.54-3.35h13.39c5.17,0,6.54.91,6.54,4.11,0,6.24-4.72,16.74-10.35,23.28-8.37,9.89-20.39,14.76-36.06,14.76-16.59,0-29.37-5.78-38.65-17.2-7.61-9.59-11.72-22.37-11.72-36.22s4.72-27.54,13.54-37.59c9.28-10.5,21.76-15.67,37.74-15.67s29.07,6.24,37.59,17.8c3.96,5.33,7.15,12.78,7.15,16.59,0,3.2-1.37,4.11-6.54,4.11h-12.93Z"/>
    <path class="cls-1" d="M930.45,385.63c.3,10.5,6.54,16.89,16.43,16.89,6.39,0,9.74-1.67,12.93-6.39,1.37-1.67,1.83-1.83,5.93-1.83h9.43c3.2,0,3.5,0,4.41.46,1.22.46,2.13,1.98,2.13,3.35,0,1.98-1.67,5.02-4.56,8.22-7.61,8.52-17.35,12.48-30.59,12.48-11.57,0-20.54-3.2-27.85-9.59-7.76-7-12.02-17.2-12.02-28.61,0-22.98,16.28-39.26,39.26-39.26,16.43,0,28.76,7.3,35,20.85,2.59,5.63,3.96,12.02,3.96,18.26,0,4.41-1.07,5.17-6.69,5.17h-47.78ZM961.34,371.79c-1.07-9.13-6.54-14.15-15.22-14.15s-14,5.02-15.37,14.15h30.59Z"/>
    <path class="cls-1" d="M1020.84,353.07c5.93-8.07,13.69-11.72,24.04-11.72,9.13,0,17.2,3.8,21.46,9.89,3.35,4.72,4.41,9.89,4.41,19.93v39.11c.15,5.63-.91,6.7-6.54,6.54h-11.11c-5.63.15-6.7-.91-6.54-6.54v-35.15c0-4.11-.31-6.54-1.22-8.52-1.37-3.35-5.17-5.48-9.89-5.48-5.17,0-9.89,2.59-11.87,6.39-1.37,2.43-1.83,5.48-1.83,10.04v32.72c.15,5.63-.91,6.7-6.54,6.54h-11.11c-5.63.15-6.7-.91-6.54-6.54v-60.41c-.15-5.63.91-6.7,6.54-6.54h10.19c5.63-.15,6.7.91,6.54,6.54v3.2Z"/>
    <path class="cls-1" d="M1113.96,389.44c0,8.67,1.37,10.35,8.67,10.35.3,0,.91,0,1.37-.15h1.07c3.04,0,3.96,1.52,3.96,6.54v4.72c0,6.7-.61,7-11.11,7-14.3,0-20.09-1.67-24.35-7.15-3.04-4.11-3.8-7.61-3.8-19.02v-32.41h-5.78c-5.63.15-6.7-.91-6.54-6.54v-2.89c-.15-5.63.91-6.7,6.54-6.54h5.78v-15.83c-.3-5.78.91-6.85,6.54-6.7h10.96c5.63-.15,6.85.91,6.7,6.7v15.83h8.52c5.63-.15,6.7.91,6.54,6.54v2.89c.15,5.63-.91,6.7-6.54,6.54h-8.52v30.13Z"/>
    <path class="cls-1" d="M1164.02,355.81c5.33-10.04,12.48-14.61,23.13-14.61,1.67,0,3.35.61,4.26,1.52,1.07,1.07,1.07,1.37,1.07,5.33v8.52c0,5.02-.91,6.54-3.96,6.54-.46,0-1.07,0-2.13-.15-1.37-.3-1.83-.3-3.2-.3-6.54,0-12.02,2.89-15.37,7.91-1.98,3.2-2.89,7.3-2.89,14.3v25.41c.15,5.63-.91,6.7-6.54,6.54h-11.11c-5.63.15-6.7-.91-6.54-6.54v-60.41c-.15-5.63.91-6.7,6.54-6.54h10.19c5.63-.15,6.7.91,6.54,6.54v5.93Z"/>
    <path class="cls-1" d="M1274.04,379.7c0,23.43-15.67,39.11-39.41,39.11s-38.35-16.13-38.35-38.8,15.83-38.65,38.8-38.65,38.96,15.52,38.96,38.35ZM1220.78,380c0,13.54,5.33,21.15,14.46,21.15s14.3-7.61,14.3-21.3-5.33-20.85-14.3-20.85-14.46,7.46-14.46,21Z"/>
    <path class="cls-1" d="M1352.24,357.03h35.46c5.63-.15,6.7.91,6.54,6.54v7.76c.15,5.63-.91,6.7-6.54,6.54h-35.46v32.41c.15,5.63-.91,6.7-6.54,6.54h-13.39c-5.63.15-6.7-.91-6.54-6.54v-88.41c-.15-5.63.91-6.7,6.54-6.54h61.78c5.78-.15,6.85.91,6.7,6.54v8.67c.15,5.63-.91,6.7-6.7,6.54h-41.85v19.93Z"/>
    <path class="cls-1" d="M1459.98,416.83c-5.48.3-6.69-.91-7-7-6.69,6.24-14.15,8.98-24.04,8.98-16.28,0-26.02-8.52-26.02-22.52,0-8.98,4.11-15.22,12.02-18.87,4.11-1.83,8.22-2.89,18.26-4.26,17.8-2.43,19.33-3.04,19.33-8.52s-3.65-8.07-11.11-8.07c-6.7,0-10.65,2.13-11.72,6.24-.91,2.74-1.98,3.2-6.39,3.04h-9.74c-3.8,0-4.26,0-5.33-.91-.91-.76-1.37-1.83-1.37-3.04,0-4.87,3.96-10.96,9.28-14.61,5.93-3.96,14.3-5.93,25.41-5.93,12.17,0,21.3,2.28,27.24,6.54,5.78,4.41,7.46,8.67,7.46,19.48q0,1.67-.15,14.15-.15,13.54-.15,15.06c0,6.54.46,12.93,1.22,15.07.15.46.15.91.15,1.22,0,3.04-1.67,3.96-6.69,3.96h-10.65ZM1452.67,382.13c-2.89,1.83-5.17,2.59-11.87,3.65-10.35,1.83-13.39,3.96-13.39,9.74,0,5.33,3.65,8.67,9.74,8.67,5.48,0,10.04-2.13,12.93-5.78,1.98-2.59,2.59-4.87,2.59-9.89v-6.39Z"/>
    <path class="cls-1" d="M1514.6,353.07c5.63-8.07,12.78-11.72,22.67-11.72s16.59,3.8,20.7,11.72c6.24-8.07,13.39-11.72,23.28-11.72,15.98,0,25.72,10.04,25.72,26.63v42.3c.15,5.63-.91,6.7-6.54,6.54h-11.11c-5.63.15-6.7-.91-6.54-6.54v-36.06c0-9.13-3.04-13.09-10.04-13.09-4.26,0-8.06,2.13-9.89,5.63-1.07,2.13-1.52,4.87-1.52,9.74v33.78c.15,5.63-.91,6.7-6.54,6.54h-11.11c-5.63.15-6.7-.91-6.54-6.54v-37.13c0-8.37-2.89-12.02-9.74-12.02-7.76,0-11.87,5.17-11.87,15.37v33.78c.15,5.63-.91,6.7-6.54,6.54h-11.11c-5.63.15-6.7-.91-6.54-6.54v-60.41c-.15-5.63.91-6.7,6.54-6.54h10.19c5.63-.15,6.7.91,6.54,6.54v3.2Z"/>
    <path class="cls-1" d="M1647.13,327.05c.15,5.63-1.07,6.7-6.7,6.54h-10.96c-5.63.15-6.7-.91-6.54-6.54v-5.17c-.15-5.63.91-6.7,6.54-6.54h10.96c5.63-.15,6.85.91,6.7,6.54v5.17ZM1647.13,410.29c.15,5.63-.91,6.7-6.54,6.54h-11.11c-5.63.15-6.7-.91-6.54-6.54v-60.41c-.15-5.63.91-6.7,6.54-6.54h11.11c5.63-.15,6.7.91,6.54,6.54v60.41Z"/>
    <path class="cls-1" d="M1687.76,410.29c.15,5.63-.91,6.7-6.54,6.54h-11.11c-5.63.15-6.7-.91-6.54-6.54v-88.41c-.15-5.63.91-6.7,6.54-6.54h11.11c5.63-.15,6.7.91,6.54,6.54v88.41Z"/>
    <path class="cls-1" d="M1728.39,327.05c.15,5.63-1.07,6.7-6.7,6.54h-10.96c-5.63.15-6.7-.91-6.54-6.54v-5.17c-.15-5.63.91-6.7,6.54-6.54h10.96c5.63-.15,6.85.91,6.7,6.54v5.17ZM1728.39,410.29c.15,5.63-.91,6.7-6.54,6.54h-11.11c-5.63.15-6.7-.91-6.54-6.54v-60.41c-.15-5.63.91-6.7,6.54-6.54h11.11c5.63-.15,6.7.91,6.54,6.54v60.41Z"/>
    <path class="cls-1" d="M1796.71,416.83c-5.48.3-6.69-.91-7-7-6.69,6.24-14.15,8.98-24.04,8.98-16.28,0-26.02-8.52-26.02-22.52,0-8.98,4.11-15.22,12.02-18.87,4.11-1.83,8.22-2.89,18.26-4.26,17.8-2.43,19.33-3.04,19.33-8.52s-3.65-8.07-11.11-8.07c-6.7,0-10.65,2.13-11.72,6.24-.91,2.74-1.98,3.2-6.39,3.04h-9.74c-3.8,0-4.26,0-5.33-.91-.91-.76-1.37-1.83-1.37-3.04,0-4.87,3.96-10.96,9.28-14.61,5.93-3.96,14.3-5.93,25.41-5.93,12.17,0,21.3,2.28,27.24,6.54,5.78,4.41,7.46,8.67,7.46,19.48q0,1.67-.15,14.15-.15,13.54-.15,15.06c0,6.54.46,12.93,1.22,15.07.15.46.15.91.15,1.22,0,3.04-1.67,3.96-6.69,3.96h-10.65ZM1789.41,382.13c-2.89,1.83-5.17,2.59-11.87,3.65-10.35,1.83-13.39,3.96-13.39,9.74,0,5.33,3.65,8.67,9.74,8.67,5.48,0,10.04-2.13,12.93-5.78,1.98-2.59,2.59-4.87,2.59-9.89v-6.39Z"/>
    <path class="cls-1" d="M1851.34,355.81c5.33-10.04,12.48-14.61,23.13-14.61,1.67,0,3.35.61,4.26,1.52,1.07,1.07,1.07,1.37,1.07,5.33v8.52c0,5.02-.91,6.54-3.96,6.54-.46,0-1.07,0-2.13-.15-1.37-.3-1.83-.3-3.2-.3-6.54,0-12.02,2.89-15.37,7.91-1.98,3.2-2.89,7.3-2.89,14.3v25.41c.15,5.63-.91,6.7-6.54,6.54h-11.11c-5.63.15-6.7-.91-6.54-6.54v-60.41c-.15-5.63.91-6.7,6.54-6.54h10.19c5.63-.15,6.7.91,6.54,6.54v5.93Z"/>
    <path class="cls-1" d="M878.11,494.33c-4.41.15-5.63-.46-6.39-3.04-2.28-8.52-9.43-13.54-19.17-13.54-14.91,0-24.04,12.02-24.04,31.5s8.98,31.5,23.74,31.5c10.65,0,17.8-6.24,19.63-17.04.76-2.89,1.98-3.5,6.54-3.35h13.39c5.17,0,6.54.91,6.54,4.11,0,6.24-4.72,16.74-10.35,23.28-8.37,9.89-20.39,14.76-36.06,14.76-16.59,0-29.37-5.78-38.65-17.2-7.61-9.59-11.72-22.37-11.72-36.22s4.72-27.54,13.54-37.59c9.28-10.5,21.76-15.67,37.74-15.67s29.07,6.24,37.59,17.8c3.96,5.33,7.15,12.78,7.15,16.59,0,3.2-1.37,4.11-6.54,4.11h-12.93Z"/>
    <path class="cls-1" d="M934.11,498.9c5.33-10.04,12.48-14.61,23.13-14.61,1.67,0,3.35.61,4.26,1.52,1.07,1.07,1.07,1.37,1.07,5.33v8.52c0,5.02-.91,6.54-3.96,6.54-.46,0-1.07,0-2.13-.15-1.37-.3-1.83-.3-3.2-.3-6.54,0-12.02,2.89-15.37,7.91-1.98,3.2-2.89,7.3-2.89,14.3v25.41c.15,5.63-.91,6.7-6.54,6.54h-11.11c-5.63.15-6.7-.91-6.54-6.54v-60.41c-.15-5.63.91-6.69,6.54-6.54h10.19c5.63-.15,6.7.91,6.54,6.54v5.93Z"/>
    <path class="cls-1" d="M994.97,470.14c.15,5.63-1.07,6.7-6.7,6.54h-10.96c-5.63.15-6.7-.91-6.54-6.54v-5.17c-.15-5.63.91-6.7,6.54-6.54h10.96c5.63-.15,6.85.91,6.7,6.54v5.17ZM994.97,553.37c.15,5.63-.91,6.7-6.54,6.54h-11.11c-5.63.15-6.7-.91-6.54-6.54v-60.41c-.15-5.63.91-6.69,6.54-6.54h11.11c5.63-.15,6.7.91,6.54,6.54v60.41Z"/>
    <path class="cls-1" d="M1057.36,507.72c-4.41.15-5.48-.3-6.54-2.89-1.52-3.96-4.57-5.48-10.96-5.48s-9.59,2.13-9.59,5.93c0,4.11,2.28,5.17,17.2,8.07,21.15,4.11,28.76,10.2,28.76,23.13,0,15.83-13.24,25.41-35.3,25.41-15.37,0-26.02-4.26-31.96-12.78-2.13-2.89-3.19-6.24-3.19-9.59,0-1.22.46-2.28,1.67-3.04.76-.76,1.37-.76,4.87-.76h9.74c4.41-.15,5.48.3,6.54,3.04,1.83,5.33,5.33,7.3,12.63,7.3s11.26-2.89,11.26-7.46-2.13-5.48-15.37-8.37c-12.33-2.74-17.04-4.11-21.46-6.69-5.78-3.2-9.13-9.28-9.13-16.43,0-14.46,12.17-22.67,33.48-22.67,19.78,0,32.87,7.76,32.87,19.63,0,1.07-.61,2.13-1.52,2.89s-1.52.76-5.02.76h-8.98Z"/>
    <path class="cls-1" d="M1116.24,532.53c0,8.67,1.37,10.35,8.67,10.35.3,0,.91,0,1.37-.15h1.07c3.04,0,3.96,1.52,3.96,6.54v4.72c0,6.7-.61,7-11.11,7-14.3,0-20.09-1.67-24.35-7.15-3.04-4.11-3.8-7.61-3.8-19.02v-32.41h-5.78c-5.63.15-6.7-.91-6.54-6.54v-2.89c-.15-5.63.91-6.69,6.54-6.54h5.78v-15.83c-.3-5.78.91-6.85,6.54-6.7h10.96c5.63-.15,6.85.91,6.7,6.7v15.83h8.52c5.63-.15,6.7.91,6.54,6.54v2.89c.15,5.63-.91,6.7-6.54,6.54h-8.52v30.13Z"/>
    <path class="cls-1" d="M1167.22,470.14c.15,5.63-1.07,6.7-6.7,6.54h-10.96c-5.63.15-6.7-.91-6.54-6.54v-5.17c-.15-5.63.91-6.7,6.54-6.54h10.96c5.63-.15,6.85.91,6.7,6.54v5.17ZM1167.22,553.37c.15,5.63-.91,6.7-6.54,6.54h-11.11c-5.63.15-6.7-.91-6.54-6.54v-60.41c-.15-5.63.91-6.69,6.54-6.54h11.11c5.63-.15,6.69.91,6.54,6.54v60.41Z"/>
    <path class="cls-1" d="M1235.54,559.92c-5.48.3-6.69-.91-7-7-6.69,6.24-14.15,8.98-24.04,8.98-16.28,0-26.02-8.52-26.02-22.52,0-8.98,4.11-15.22,12.02-18.87,4.11-1.83,8.22-2.89,18.26-4.26,17.8-2.43,19.33-3.04,19.33-8.52s-3.65-8.07-11.11-8.07c-6.7,0-10.65,2.13-11.72,6.24-.91,2.74-1.98,3.2-6.39,3.04h-9.74c-3.8,0-4.26,0-5.33-.91-.91-.76-1.37-1.83-1.37-3.04,0-4.87,3.96-10.96,9.28-14.61,5.93-3.96,14.3-5.93,25.41-5.93,12.17,0,21.3,2.28,27.24,6.54,5.78,4.41,7.46,8.67,7.46,19.48q0,1.67-.15,14.15-.15,13.54-.15,15.06c0,6.54.46,12.93,1.22,15.07.15.46.15.91.15,1.22,0,3.04-1.67,3.96-6.69,3.96h-10.65ZM1228.23,525.22c-2.89,1.83-5.17,2.59-11.87,3.65-10.35,1.83-13.39,3.96-13.39,9.74,0,5.33,3.65,8.67,9.74,8.67,5.48,0,10.04-2.13,12.93-5.78,1.98-2.59,2.59-4.87,2.59-9.89v-6.39Z"/>
    <path class="cls-1" d="M1290.16,496.16c5.93-8.07,13.69-11.72,24.04-11.72,9.13,0,17.2,3.8,21.46,9.89,3.35,4.72,4.41,9.89,4.41,19.93v39.11c.15,5.63-.91,6.7-6.54,6.54h-11.11c-5.63.15-6.7-.91-6.54-6.54v-35.15c0-4.11-.3-6.54-1.22-8.52-1.37-3.35-5.17-5.48-9.89-5.48-5.17,0-9.89,2.59-11.87,6.39-1.37,2.43-1.83,5.48-1.83,10.04v32.72c.15,5.63-.91,6.7-6.54,6.54h-11.11c-5.63.15-6.7-.91-6.54-6.54v-60.41c-.15-5.63.91-6.69,6.54-6.54h10.19c5.63-.15,6.7.91,6.54,6.54v3.2Z"/>
    <path class="cls-1" d="M1429.55,522.79c0,23.43-15.67,39.11-39.41,39.11s-38.35-16.13-38.35-38.8,15.83-38.65,38.8-38.65,38.96,15.52,38.96,38.35ZM1376.29,523.09c0,13.54,5.33,21.15,14.46,21.15s14.3-7.61,14.3-21.3-5.33-20.85-14.3-20.85-14.46,7.46-14.46,21Z"/>
  </g>
  <g>
    <path class="cls-1" d="M651.27,362.5h-44.99c-4.86,0-8.31,4.72-6.83,9.35,2.22,6.99,4.11,14.13,5.64,21.4,1.84,8.74,3.17,17.66,3.96,26.75.55,6.39.85,12.86.85,19.39,0,4.79-.17,9.54-.47,14.25-.62,9.77-1.86,19.36-3.7,28.75-1.74,8.9-4.02,17.62-6.79,26.11-1.25,3.84,1.64,7.78,5.68,7.78h29.68c10.28,0,19.1-7.22,21.27-17.27,1.18-5.48,2.21-11.02,3.06-16.62,1.21-7.91,2.07-15.94,2.61-24.05.02-.34.3-.6.64-.6h19.51c14.2,0,25.21-11.61,24.4-25.78-.09-1.56-.21-3.11-.36-4.66-.18-1.81-1.71-3.2-3.53-3.2h-39.82c-.34,0-.63-.27-.65-.61-.06-1.16-.13-2.32-.21-3.48-.6-8.77-.56-10.61-1.89-18.75-.06-.39.24-.76.64-.76l18.21-.03h37.2c16.16,0,28.39-14.66,25.45-30.55-.21-1.14-.43-2.27-.65-3.37-.47-2.34-2.52-4.03-4.91-4.03h-63.49s-20.52,0-20.52,0Z"/>
    <path class="cls-1" d="M351.58,291.91c-4.78-3.37-10.63-4.44-16.92-3.08-12.9,2.78-20.74,17.33-17.49,32.44,2.82,13.07,11.9,21.2,22.94,21.2,1.64,0,3.32-.18,5.03-.55,6.06-1.3,11.11-5.49,14.22-11.8,3.09-6.26,3.9-13.86,2.27-21.4-1.61-7.5-5.09-13.31-10.05-16.81Z"/>
    <path class="cls-1" d="M577.75,326.44c7.59,10.98,19.92,16.92,33.27,16.92h28.49c3.61,0,5.69-4.02,4.22-7.31-37.65-84.48-120.01-143.39-217.32-148.03-153.7-7.33-273.47,114.72-263.29,268.26,8.69,131.11,117.79,234.77,251.1,234.77,102.36,0,190.43-61.12,229.75-148.85,1.57-3.51-1.04-7.48-4.89-7.48h-30.36c-12.01,0-23.13,6.08-29.87,16.03-9.28,13.7-20.25,26.16-32.56,37.13-4.1-17.94-4.6-24.36-4.62-26.29,0-.1.09-.2.18-.2.61-.01,1.35-.15,2.2-.42,3.82-1.18,6.88-3.84,8.62-7.5,1.76-3.7,1.88-8,.34-11.8-10.51-25.86-18.93-76.89-14.03-103.93,5.55-30.62,4.68-55.23-2.44-69.27-6.14-13.32-8.82-25.55-11.19-36.35-4.08-18.6-6.7-33.58-24.76-36.55-11.56-1.9-22.79,4.86-27.56,21.72-4.29,15.13,1.09,30.72,11.75,34.05,4.57,1.43,9.59.16,14.49-3.47-.11,5.03-3.58,7.28-7.54,9.01-.57.25-1.14.5-1.67.74-15.63,5.47-22.31,15.72-27.34,24.89-1.78,3.24-4.09,9.13-7.01,16.59-7.72,19.7-19.38,49.47-34.43,62.98-.05.04-.1.05-.14.05-.03,0-.09-.02-.14-.08-2.99-3.84-18.62-24.39-32.31-51.58-3.35-6.64-6.03-13.91-8.62-20.93-9.27-25.09-18.02-48.78-54.58-39.11-14.41,3.81-23.82,17.87-27.96,41.77-3.41,19.7-2.55,42.03-2.03,55.37.17,4.29.3,7.68.26,9.98-.2,12.99-4.39,35.49-6.19,44.57-.82,4.15.76,8.31,4.11,10.87,2.47,1.88,5.63,4.03,9.38,6.39.06.04.1.1.11.16,4.39,34.33.77,70.04-1.04,84.11-62.99-43.04-99.97-121.35-82.43-206.5,13.94-67.68,80.95-136.22,148.37-151.35,86.2-19.35,165.87,17.32,209.69,80.68ZM463.08,475.79c3.6-12.71,16.12-20.55,27.55-17.26,11.81,3.41,18.01,16.03,14.28,29.11-3.59,12.63-16.65,20.85-27.55,17.76-13.88-3.93-17.76-17.35-14.28-29.62ZM352.04,431.11c11.05-3.39,23.63,4.46,27.61,17.22,3.79,12.18-2.6,26.81-13.14,30.07-11.25,3.48-23.22-4.19-27.24-17.47-4.07-13.42,1.47-26.35,12.77-29.82ZM345.49,488.97c4.21-2.56,8.53-3.93,12.87-4.07,3.41-.31,9.21.08,17.54,3.66,11.91,5.13,19.69,20.16,22.12,32.77,2.89,15,13.5,27.21,17.92,31.76,1.52,1.56,3.84,1.95,5.79.97,6.95-3.5,24.56-13.69,37.99-32.8,3.01-4.29,6.31-6.93,9.84-7.88,2.64-.97,5.7-1.44,9.37-1.44h.01c20.35,0,24.58,15.09,25.45,21.57.03.25.06.42.08.49.98,3.95,1.51,9.13,2.08,14.62,1.12,10.93,2.17,22.68,6.59,30.16,3.42,5.79,4.4,9.42,3.53,11.35-1.05,2.33-4.21,3.6-8.41,5.23-5.68,2.21-7.02,5.59-7.29,10.47-.23,4.14-.66,8.4-1.29,12.65-.48,3.22-.95,6.42-1.72,9.46-.87,3.44-2.15,6.71-4.87,6.78-3.18.08-4.67-3.71-5.63-6.32l-.05-.14c-.38-1.02-.74-2.11-1.19-3.54-.8-2.59-1.5-5.28-2.17-7.87-.74-2.87-1.51-5.83-2.43-8.71-.12-.36-.22-.73-.31-1.09-.54-1.98-1.15-4.23-4.25-4.53-3.62-.36-4.56,2.98-5.23,5.41l-.09.33c-.72,2.59-1.37,5.02-2,7.4-1.06,4.01-2.07,7.79-3.33,11.95l-.28.92c-.23.78-.5,1.69-.81,2.64-1.92,5.84-4,8.67-6.38,8.67-2.02,0-3.46-1.91-4.41-5.83-.41-1.67-.64-3.37-.83-4.73l-.13-.92c-.83-5.56-1-11.79-1.17-17.81-.04-1.35-.08-2.68-.12-3.97-.03-.82-.03-1.58-.03-2.3,0-4.13-.02-7.12-5.43-8.94-4.9-1.65-4.32-5.21-2.75-11.96,1.84-7.92,3.07-15.11,4.26-22.07.33-1.91.65-3.81.99-5.73l.23-1.3-1.1.73c-8.66,5.77-17.9,10.37-27.47,13.68-2,.69-4.17.6-6.13-.25-11.57-5.04-21.33-16.86-27.49-25.88l-.96-1.41-.07,1.7c-.25,5.89-.71,12.05-1.37,20.09-.69,8.35-.63,18.7-.56,29.66.09,15.19.18,30.91-1.76,42.39-.03.2-.07.41-.11.61-.73,3.82-2.2,7.83-3.35,9.14-.3.34-.91.9-1.79.81-1.06-.1-2.21-1.15-3.31-3.03-1.16-1.97-2.26-5.05-3.36-9.41-1.67-6.64-3.13-15.42-4.67-24.72-1.36-8.21-2.77-16.71-4.48-24.77l-.51-2.41-.59,2.39c-1.85,7.48-3.28,15-4.54,21.63-1.7,8.95-3.17,16.69-5.23,22.54-1.22,3.45-2.55,5.96-4.06,7.67-.84.95-1.83,1.43-2.84,1.37-1.1-.05-1.78-.72-2.58-1.84-1.26-1.73-2.49-5.68-2.92-12.08l-.05-.75c-.33-5.47-.12-12.04.1-18.99.29-9.11.63-19.43-.21-29.47-.03-.41-.33-.72-.88-1.3-1.44-1.51-4.8-5.04-5.92-14.08-4.91-39.58-.67-60.32,14.19-69.36Z"/>
    <path class="cls-1" d="M741.95,474.56h-16.41c-17.66,0-32.89,12.18-37.03,29.34-1.72,7.13-3.73,14.19-6.01,21.17-1.18,3.61-2.43,7.2-3.76,10.77-1.41,3.79-2.9,7.57-4.48,11.31-14.17,33.51-34.47,63.61-60.34,89.48-25.86,25.86-55.97,46.17-89.48,60.34-34.66,14.66-71.52,22.1-109.53,22.1s-74.87-7.43-109.53-22.1c-33.51-14.17-63.61-34.47-89.48-60.34-25.86-25.86-46.17-55.97-60.34-89.48-14.66-34.66-22.1-71.52-22.1-109.53s7.43-74.87,22.1-109.53c14.17-33.51,34.47-63.61,60.34-89.48,25.86-25.86,55.97-46.17,89.48-60.34,34.66-14.66,71.52-22.1,109.53-22.1s74.87,7.43,109.53,22.1c33.51,14.17,63.61,34.47,89.48,60.34,13.69,13.69,25.24,28.96,36.3,44.5,10.89,15.3,17.79,28.69,22.18,38.87,5.17,11.98,17.01,19.7,30.06,19.7h26.94c3.45,0,5.9-3.36,4.85-6.64-43.34-135.03-169.92-232.78-319.35-232.78-185.21,0-335.36,150.14-335.36,335.36s150.14,335.36,335.36,335.36c151.03,0,278.74-99.85,320.73-237.14,1.09-3.56,2.11-7.16,3.09-10.77,3.88-14.39,6.82-29.15,8.76-44.24.43-3.33-2.17-6.28-5.53-6.28Z"/>
  </g>
</svg>