<?xml version="1.0" encoding="UTF-8"?>
<svg id="Layer_1" data-name="Layer 1" xmlns="http://www.w3.org/2000/svg" viewBox="0 0 902.86 875.25">
  <defs>
    <style>
      .cls-1 {
        fill: #fff;
      }
    </style>
  </defs>
  <path class="cls-1" d="M689.17,362.5h-44.99c-4.86,0-8.31,4.72-6.83,9.35,2.22,6.99,4.11,14.13,5.64,21.4,1.84,8.74,3.17,17.66,3.96,26.75.55,6.39.85,12.86.85,19.39,0,4.79-.17,9.54-.47,14.25-.62,9.77-1.86,19.36-3.7,28.75-1.74,8.9-4.02,17.62-6.79,26.11-1.25,3.84,1.64,7.78,5.68,7.78h29.68c10.28,0,19.1-7.22,21.27-17.27,1.18-5.48,2.21-11.02,3.06-16.62,1.21-7.91,2.07-15.94,2.61-24.05.02-.34.3-.6.64-.6h19.51c14.2,0,25.21-11.61,24.4-25.78-.09-1.56-.21-3.11-.36-4.66-.18-1.81-1.71-3.2-3.53-3.2h-39.82c-.34,0-.63-.27-.65-.61-.06-1.16-.13-2.32-.21-3.48-.6-8.77-.56-10.61-1.89-18.75-.06-.39.24-.76.64-.76l18.21-.03h37.2c16.16,0,28.39-14.66,25.45-30.55-.21-1.14-.43-2.27-.65-3.37-.47-2.34-2.52-4.03-4.91-4.03h-63.49s-20.52,0-20.52,0Z"/>
  <path class="cls-1" d="M389.48,291.91c-4.78-3.37-10.63-4.44-16.92-3.08-12.9,2.78-20.74,17.33-17.49,32.44,2.82,13.07,11.9,21.2,22.94,21.2,1.64,0,3.32-.18,5.03-.55,6.06-1.3,11.11-5.49,14.22-11.8,3.09-6.26,3.9-13.86,2.27-21.4-1.61-7.5-5.09-13.31-10.05-16.81Z"/>
  <path class="cls-1" d="M615.65,326.44c7.59,10.98,19.92,16.92,33.27,16.92h28.49c3.61,0,5.69-4.02,4.22-7.31-37.65-84.48-120.01-143.39-217.32-148.03-153.7-7.33-273.47,114.72-263.29,268.26,8.69,131.11,117.79,234.77,251.1,234.77,102.36,0,190.43-61.12,229.75-148.85,1.57-3.51-1.04-7.48-4.89-7.48h-30.36c-12.01,0-23.13,6.08-29.87,16.03-9.28,13.7-20.25,26.16-32.56,37.13-4.1-17.94-4.6-24.36-4.62-26.29,0-.1.09-.2.18-.2.61-.01,1.35-.15,2.2-.42,3.82-1.18,6.88-3.84,8.62-7.5,1.76-3.7,1.88-8,.34-11.8-10.51-25.86-18.93-76.89-14.03-103.93,5.55-30.62,4.68-55.23-2.44-69.27-6.14-13.32-8.82-25.55-11.19-36.35-4.08-18.6-6.7-33.58-24.76-36.55-11.56-1.9-22.79,4.86-27.56,21.72-4.29,15.13,1.09,30.72,11.75,34.05,4.57,1.43,9.59.16,14.49-3.47-.11,5.03-3.58,7.28-7.54,9.01-.57.25-1.14.5-1.67.74-15.63,5.47-22.31,15.72-27.34,24.89-1.78,3.24-4.09,9.13-7.01,16.59-7.72,19.7-19.38,49.47-34.43,62.98-.05.04-.1.05-.14.05-.03,0-.09-.02-.14-.08-2.99-3.84-18.62-24.39-32.31-51.58-3.35-6.64-6.03-13.91-8.62-20.93-9.27-25.09-18.02-48.78-54.58-39.11-14.41,3.81-23.82,17.87-27.96,41.77-3.41,19.7-2.55,42.03-2.03,55.37.17,4.29.3,7.68.26,9.98-.2,12.99-4.39,35.49-6.19,44.57-.82,4.15.76,8.31,4.11,10.87,2.47,1.88,5.63,4.03,9.38,6.39.06.04.1.1.11.16,4.39,34.33.77,70.04-1.04,84.11-62.99-43.04-99.97-121.35-82.43-206.5,13.94-67.68,80.95-136.22,148.37-151.35,86.2-19.35,165.87,17.32,209.69,80.68ZM500.98,475.79c3.6-12.71,16.12-20.55,27.55-17.26,11.81,3.41,18.01,16.03,14.28,29.11-3.59,12.63-16.65,20.85-27.55,17.76-13.88-3.93-17.76-17.35-14.28-29.62ZM389.94,431.11c11.05-3.39,23.63,4.46,27.61,17.22,3.79,12.18-2.6,26.81-13.14,30.07-11.25,3.48-23.22-4.19-27.24-17.47-4.07-13.42,1.47-26.35,12.77-29.82ZM383.39,488.97c4.21-2.56,8.53-3.93,12.87-4.07,3.41-.31,9.21.08,17.54,3.66,11.91,5.13,19.69,20.16,22.12,32.77,2.89,15,13.5,27.21,17.92,31.76,1.52,1.56,3.84,1.95,5.79.97,6.95-3.5,24.56-13.69,37.99-32.8,3.01-4.29,6.31-6.93,9.84-7.88,2.64-.97,5.7-1.44,9.37-1.44h.01c20.35,0,24.58,15.09,25.45,21.57.03.25.06.42.08.49.98,3.95,1.51,9.13,2.08,14.62,1.12,10.93,2.17,22.68,6.59,30.16,3.42,5.79,4.4,9.42,3.53,11.35-1.05,2.33-4.21,3.6-8.41,5.23-5.68,2.21-7.02,5.59-7.29,10.47-.23,4.14-.66,8.4-1.29,12.65-.48,3.22-.95,6.42-1.72,9.46-.87,3.44-2.15,6.71-4.87,6.78-3.18.08-4.67-3.71-5.63-6.32l-.05-.14c-.38-1.02-.74-2.11-1.19-3.54-.8-2.59-1.5-5.28-2.17-7.87-.74-2.87-1.51-5.83-2.43-8.71-.12-.36-.22-.73-.31-1.09-.54-1.98-1.15-4.23-4.25-4.53-3.62-.36-4.56,2.98-5.23,5.41l-.09.33c-.72,2.59-1.37,5.02-2,7.4-1.06,4.01-2.07,7.79-3.33,11.95l-.28.92c-.23.78-.5,1.69-.81,2.64-1.92,5.84-4,8.67-6.38,8.67-2.02,0-3.46-1.91-4.41-5.83-.41-1.67-.64-3.37-.83-4.73l-.13-.92c-.83-5.56-1-11.79-1.17-17.81-.04-1.35-.08-2.68-.12-3.97-.03-.82-.03-1.58-.03-2.3,0-4.13-.02-7.12-5.43-8.94-4.9-1.65-4.32-5.21-2.75-11.96,1.84-7.92,3.07-15.11,4.26-22.07.33-1.91.65-3.81.99-5.73l.23-1.3-1.1.73c-8.66,5.77-17.9,10.37-27.47,13.68-2,.69-4.17.6-6.13-.25-11.57-5.04-21.33-16.86-27.49-25.88l-.96-1.41-.07,1.7c-.25,5.89-.71,12.05-1.37,20.09-.69,8.35-.63,18.7-.56,29.66.09,15.19.18,30.91-1.76,42.39-.03.2-.07.41-.11.61-.73,3.82-2.2,7.83-3.35,9.14-.3.34-.91.9-1.79.81-1.06-.1-2.21-1.15-3.31-3.03-1.16-1.97-2.26-5.05-3.36-9.41-1.67-6.64-3.13-15.42-4.67-24.72-1.36-8.21-2.77-16.71-4.48-24.77l-.51-2.41-.59,2.39c-1.85,7.48-3.28,15-4.54,21.63-1.7,8.95-3.17,16.69-5.23,22.54-1.22,3.45-2.55,5.96-4.06,7.67-.84.95-1.83,1.43-2.84,1.37-1.1-.05-1.78-.72-2.58-1.84-1.26-1.73-2.49-5.68-2.92-12.08l-.05-.75c-.33-5.47-.12-12.04.1-18.99.29-9.11.63-19.43-.21-29.47-.03-.41-.33-.72-.88-1.3-1.44-1.51-4.8-5.04-5.92-14.08-4.91-39.58-.67-60.32,14.19-69.36Z"/>
  <path class="cls-1" d="M779.85,474.56h-16.41c-17.66,0-32.89,12.18-37.03,29.34-1.72,7.13-3.73,14.19-6.01,21.17-1.18,3.61-2.43,7.2-3.76,10.77-1.41,3.79-2.9,7.57-4.48,11.31-14.17,33.51-34.47,63.61-60.34,89.48-25.86,25.86-55.97,46.17-89.48,60.34-34.66,14.66-71.52,22.1-109.53,22.1s-74.87-7.43-109.53-22.1c-33.51-14.17-63.61-34.47-89.48-60.34-25.86-25.86-46.17-55.97-60.34-89.48-14.66-34.66-22.1-71.52-22.1-109.53s7.43-74.87,22.1-109.53c14.17-33.51,34.47-63.61,60.34-89.48,25.86-25.86,55.97-46.17,89.48-60.34,34.66-14.66,71.52-22.1,109.53-22.1s74.87,7.43,109.53,22.1c33.51,14.17,63.61,34.47,89.48,60.34,13.69,13.69,25.24,28.96,36.3,44.5,10.89,15.3,17.79,28.69,22.18,38.87,5.17,11.98,17.01,19.7,30.06,19.7h26.94c3.45,0,5.9-3.36,4.85-6.64-43.34-135.03-169.92-232.78-319.35-232.78-185.21,0-335.36,150.14-335.36,335.36s150.14,335.36,335.36,335.36c151.03,0,278.74-99.85,320.73-237.14,1.09-3.56,2.11-7.16,3.09-10.77,3.88-14.39,6.82-29.15,8.76-44.24.43-3.33-2.17-6.28-5.53-6.28Z"/>
</svg>